<svg xmlns="http://www.w3.org/2000/svg" viewBox="0 0 500 500"><defs><style>.a{fill:#010101;}.b{fill:#fff;}.c{fill:#efbc5f;}.d{fill:#fefefe;}.e{fill:#fcfcfc;}.f{fill:#fbfafa;}.g{fill:#fbfbfa;}.h{fill:#eebb5f;}.i{fill:#020202;}.j{fill:#070707;}.k{fill:#090908;}.l{fill:#080707;}.m{fill:#040303;}.n{fill:#040403;}</style></defs><path class="a" d="M58.08,121.67c2.77-6.65,6.77-12,14.29-13.75a20.63,20.63,0,0,1,4.81-.45q172.4,0,344.8,0c11.31,0,19.17,7.92,19.17,19.29q0,122.87,0,245.72c0,11.36-7.86,19.3-19.17,19.3q-172.39,0-344.8,0c-8.68,0-15.25-4.63-18.26-12.74-.2-.54,0-1.28-.84-1.46Z"/><path class="b" d="M330.07,181.63c31.54,0,63.08.07,94.62-.09,3.42,0,4,1,4,4.14q-.18,54.78,0,109.58c0,3.09-.7,3.84-3.82,3.84q-95-.15-190,0c-3.09,0-3.88-.73-3.87-3.86q.18-54.78,0-109.58c0-3.27.72-4.12,4.07-4.1C266.75,181.69,298.41,181.63,330.07,181.63Z"/><path class="c" d="M187.64,211.52c-5.17,13.81-14.15,24.69-25.74,33.59-2,1.52-2.26-.32-3-1.19-5-5.6-11.23-7.79-18.49-6.16-6.68,1.49-11.22,5.76-13.42,12.26a18.52,18.52,0,0,0,34.79,12.67A10.51,10.51,0,0,1,166,257.4a92.62,92.62,0,0,0,30.86-35.3c2.18,1.14,2.78,3.44,3.71,5.37C213,253,208.13,281.18,188,301.08c-21.75,21.49-57.79,23.45-81.78,4.33-17.33-13.81-25.78-32-24.22-54,1.55-21.81,12.25-38.85,31.33-49.8,22.87-13.13,49.7-11,69.79,4.79C184.88,207.8,187.2,208.87,187.64,211.52Z"/><path class="b" d="M330,311.61c31.67,0,63.34,0,95-.07,2.93,0,3.67.73,3.65,3.66-.14,18.57-.07,37.15-.08,55.73,0,6.67-1.64,8.26-8.43,8.27q-92.56,0-185.14.09c-3.42,0-4-1-4-4.14q.22-29.75,0-59.48c0-3.16.55-4.17,4-4.15C266.7,311.68,298.36,311.61,330,311.61Z"/><path class="b" d="M193.71,184.25c-43.34-28.59-97.31-14.2-122.53,25.5-1.08-.88-.53-2.08-.54-3.07q0-39.28,0-78.56c0-6.31,1.71-8.06,7.87-8.06,29.05,0,58.1,0,87.15-.08,3,0,3.64.92,3.6,3.73-.16,10.47-.1,21-.06,31.42,0,9.37,5,14.28,14.28,14.35,3.35,0,7.88-1.14,9.75.56,2.19,2,.52,6.58.69,10C194,181.3,193.8,182.54,193.71,184.25Z"/><path class="b" d="M71,302c34.68,54,112.84,53.73,147.17-.11,1,.79.44,1.85.45,2.74,0,15.45-.07,30.9.1,46.35,0,3.06-.93,3.64-3.76,3.63-18.69-.12-37.38-.07-56.07-.06-9.51,0-14.35,4.92-14.5,14.5-.06,3.31,1.46,7.71-.68,9.61-1.85,1.63-6.15.56-9.37.57q-28,0-56.07,0c-5.75,0-7.66-1.85-7.67-7.51q0-33.65,0-67.29C70.64,303.59,70.25,302.68,71,302Z"/><path class="b" d="M187.64,211.52c-13.08-12.34-28.56-18-46.57-17.37-27.94,1-53.58,24-57.52,51.83-4.8,33.94,16.2,63.69,49.8,70.54,33.36,6.8,67.38-17.29,72.21-51A62,62,0,0,0,198,224.84a24.39,24.39,0,0,1-1.15-2.74c1.75-4.1,3.49-8.21,5.35-12.57a69.24,69.24,0,0,1,13.62,26.07c12,42.21-15.54,85.82-58.74,93.26-40.93,7.05-79.67-21.17-85.72-62.44a73.9,73.9,0,0,1,63-84c20.39-2.83,39,2.28,55.47,14.71,1.63,1.24,2.15,2.37,1.47,4.31C190.13,204.84,189.51,208.41,187.64,211.52Z"/><path class="b" d="M274.29,169.22c-13.21,0-26.42-.06-39.63.06-2.62,0-3.67-.41-3.64-3.41.18-14.2.16-28.41,0-42.62,0-2.7.83-3.26,3.36-3.25q40,.14,80,0c2.71,0,3.25.84,3.23,3.37q-.18,21.3,0,42.62c0,2.66-.76,3.32-3.34,3.3C301,169.16,287.63,169.22,274.29,169.22Z"/><path class="b" d="M379.12,169.22c-15.21,0-30.43-.08-45.64.07-2.87,0-3.51-.83-3.49-3.58q.21-21.32,0-42.65c0-2.49.72-3.06,3.12-3.06,29.42.08,58.85,0,88.28.06,5.21,0,7.19,2,7.2,7.23,0,13-.06,25.94.08,38.9,0,2.56-.8,3.09-3.17,3.08C410,169.18,394.58,169.22,379.12,169.22Z"/><path class="d" d="M181.65,138.32c0-5.1.1-10.2,0-15.3-.06-2.15.31-3.06,2.79-3,10.57.15,21.14.1,31.71,0,1.88,0,2.54.45,2.61,2.47.36,9.67.43,9.64-9.15,9.69-2.34,0-4.7-.28-7,.59-4.86,1.81-7.8,5.13-8.44,10.32a37,37,0,0,0-.19,4.47c0,9.74,0,9.67-9.84,9.36-2-.06-2.53-.61-2.48-2.55C181.73,149,181.65,143.67,181.65,138.32Z"/><path class="e" d="M218.67,209.74c-4.12-5.09-8-10.16-12.51-14.68a2.16,2.16,0,0,1-.58-2c1.19-6.91.72-13.89.74-20.83,0-2.07.51-2.73,2.68-2.78,9.67-.21,9.67-.29,9.67,9.17Z"/><path class="f" d="M218.67,150.57c0,6.3,0,6.3-6.46,6.3-5.84,0-5.84,0-5.84-5.8,0-6.33,0-6.33,6.45-6.33C218.67,144.74,218.67,144.74,218.67,150.57Z"/><path class="f" d="M187.52,379.2c-5.87,0-5.87,0-5.87-5.77,0-6.34,0-6.34,6.39-6.34,5.89,0,5.89,0,5.89,5.74C193.93,379.2,193.93,379.2,187.52,379.2Z"/><path class="f" d="M212.39,379.2c-6,0-6,0-6-6s0-6.1,6.27-6.1c6,0,6,0,6,6S218.67,379.2,212.39,379.2Z"/><path class="g" d="M169.18,373.09c0,6.11,0,6.11-6.27,6.11-6,0-6,0-6-6s0-6.08,5.92-6.08h.37C169.18,367.09,169.18,367.09,169.18,373.09Z"/><path class="h" d="M150.75,255.67a6.06,6.06,0,0,1-6.14,6.13,5.89,5.89,0,0,1-6.11-5.7,6.24,6.24,0,0,1,5.87-6.45A6.46,6.46,0,0,1,150.75,255.67Z"/><path class="i" d="M317.67,228.07c0,10.22.07,20.44-.05,30.66,0,2.32.44,3.55,3,3.07a1.53,1.53,0,0,1,.37,0c2.92.33,7-1.43,8.49.74,1.82,2.65.4,6.75.58,10.21.07,1.42-.74,1.55-1.88,1.61-3.44.18-8-1.51-10,.7-1.69,1.91-.54,6.39-.5,9.74,0,1.67-.61,2.28-2.19,2.09a1.53,1.53,0,0,0-.37,0c-9.94.41-10,.41-10-9.55,0-2.45-.64-3.16-3.09-3.07-2.94.11-6.89,1.34-8.61-.48-1.87-2-.26-5.92-.61-9-.31-2.61.82-3.1,3.17-3.07,2.93,0,6.94,1.38,8.52-.57s.54-5.69.54-8.66c0-18.32.09-36.64-.06-55,0-3,.81-3.74,3.72-3.69,9,.14,9,0,9,8.79Z"/><path class="i" d="M255.66,252.78c0-10.34-.07-20.69.05-31,0-2.21-.42-3.34-2.82-2.88a2.69,2.69,0,0,1-.75,0c-2.82-.22-7.27,1.22-8.11-.59-1.41-3-.53-7-.62-10.61,0-1.5,1-1.42,2-1.42a67.2,67.2,0,0,1,7.1.06c2.75.3,3.21-.82,3.18-3.32-.1-9.13,0-9,9-9.15,3,0,3.83.8,3.67,3.72s-1.32,6.66.53,8.17,5.47.69,8.29.46,3.5.75,3.47,3.51c-.13,9.12,0,9.25-9,9.09-2.8-.05-3.47.67-3.45,3.46.13,20.31,0,40.63.14,60.94,0,2.84-.57,3.83-3.64,3.77-9-.18-9,0-9-9.14Z"/><path class="i" d="M367.07,218.62c0,7.35.07,14.71-.05,22.07,0,2.06.47,3.08,2.67,2.73a4.66,4.66,0,0,1,1.12,0c2.8.27,6.82-1.34,8.15.69,1.77,2.71.42,6.75.56,10.22,0,1.13-.62,1.52-1.65,1.52h-2.61c-8.19,0-8.19,0-8.19,8.38,0,6.61-.11,13.22.05,19.82.06,2.34-.66,2.89-2.94,2.91-9.71.06-9.71.14-9.71-9.63,0-6.1-.09-12.22,0-18.32.05-2.31-.38-3.36-3-3.23-2.94.15-6.88,1.34-8.61-.47-1.89-2-.3-5.93-.62-9-.23-2.23.38-3.11,2.81-3,2.95.19,7,1,8.64-.48,2.14-2,.69-6.08.72-9.26.09-12,.11-23.94,0-35.91,0-2.76.42-3.91,3.59-3.85,9.05.17,9.06,0,9.06,9.07Z"/><path class="a" d="M404.09,231.11h-3.35c-9.9,0-10.37-.62-9.07-10.79.22-1.65,1-1.66,2.18-1.65,6.83,0,13.66,0,20.5,0,1.56,0,2.36.39,2.11,2.06a2.29,2.29,0,0,0,0,.37c-.08,3.21,1,7.25-.57,9.39s-5.77.41-8.82.63C406.08,231.17,405.08,231.11,404.09,231.11Z"/><path class="a" d="M403.74,280.58h-2.61c-10.19,0-10.14,0-9.45-10.4.11-1.64.58-2.09,2.15-2.07q10.25.11,20.5,0c1.53,0,2.07.36,2.18,2,.72,10.44.77,10.44-9.42,10.44Z"/><path class="a" d="M403.75,255.84c-1.12,0-2.24.06-3.35,0-2.8-.17-7.25,1.2-8.06-.54-1.38-3-.52-7-.6-10.57,0-1.6,1.14-1.3,2.08-1.3,6.83,0,13.66.06,20.49,0,1.93,0,2.25.76,2.17,2.41-.15,3.2,1,7.36-.57,9.37s-6,.49-9.18.69C405.74,255.9,404.74,255.84,403.75,255.84Z"/><path class="a" d="M404.13,193.93c1,0,2-.07,3,0,3,.23,7.53-1.41,8.77.65,1.56,2.57.47,6.71.6,10.17,0,1.37-.6,1.65-1.79,1.64q-10.63,0-21.25,0c-1.28,0-1.86-.41-1.71-1.7,0-.25,0-.5,0-.75.08-3.21-1-7.26.59-9.39s5.77-.41,8.83-.62C402.13,193.87,403.13,193.93,404.13,193.93Z"/><path class="a" d="M373,367.09c-10,0-19.95,0-29.92,0-8,0-13.23-5.25-13.32-13.33,0-3.74-.09-7.48,0-11.22.21-7.21,5.34-12.64,12.52-12.69q30.85-.21,61.7,0c7.4.05,12.39,5.54,12.44,13q0,5.61,0,11.22c-.05,7.88-5.16,13-13.14,13C393.21,367.12,383.11,367.09,373,367.09Z"/><path class="a" d="M243.43,342.39a24.77,24.77,0,0,1,49.53-.15,24.77,24.77,0,1,1-49.53.15Z"/><path class="j" d="M311.88,354.49c5.79,0,5.8,0,5.8,5.9,0,6.7,0,6.7-6.79,6.7-5.83,0-5.83,0-5.83-5.83C305.06,354.49,305.06,354.49,311.88,354.49Z"/><path class="k" d="M88.89,132.17a6.47,6.47,0,0,1,6.41,6.34,6.68,6.68,0,0,1-6.25,6.22,6.42,6.42,0,0,1-6.27-6.44A6.12,6.12,0,0,1,88.89,132.17Z"/><path class="l" d="M120.05,360.75c0,6.34,0,6.34-6.45,6.34-6.14,0-6.14,0-6.14-6.2,0-6.4,0-6.4,6.37-6.4C120.05,354.49,120.05,354.49,120.05,360.75Z"/><path class="l" d="M89,367.09c-6.18,0-6.18,0-6.18-6.14,0-6.46,0-6.46,6.29-6.46s6.28,0,6.28,6.21C95.34,367.09,95.34,367.09,89,367.09Z"/><path class="m" d="M255.84,150.83c-3.11,0-6.22-.12-9.32,0-2.26.12-3.2-.34-3.2-3,0-9.69-.11-9.69,9.54-9.69,4.22,0,8.45.09,12.67,0,2-.06,2.75.44,2.81,2.64.24,10,.32,10-9.52,10Z"/><path class="n" d="M292.93,138.23c3.24,0,6.48.13,9.7,0,2.18-.12,2.67.7,2.73,2.76.26,9.89.32,9.88-9.66,9.88-4.35,0-8.7-.07-13.05,0-1.78,0-2.26-.53-2.34-2.31-.49-10.33-.54-10.33,9.64-10.33Z"/><path class="a" d="M365.54,161.76c-2.74-5.46-5.15-10.06-7.36-14.76a3.32,3.32,0,0,0-3.63-2.3c-3.36.17-6.74,0-10.1.08-1.6,0-2.36-.45-2.15-2.1,0-.13,0-.25,0-.38-.5-10.14-.5-10.15,9.71-10.13a43.1,43.1,0,0,1,7.46.23c4.33.76,7.22,3.66,9.54,8,2.8-3,5.51-5.56,7.85-8.44,2-2.46,3.31-1.92,5.14.14,2.38,2.7,5.05,5.15,7.93,8.05,3.81-8.39,11-8.2,18.42-8,8.11.18,7.91,0,8.2,8,.13,3.65-.67,5.43-4.57,4.59-8-1.73-12.27,1.79-15.1,9.28s-3.39,7.24-9,1.71c-2.82-2.76-5.35-7.71-8.55-7.62-2.83.08-5.59,4.78-8.29,7.53C369.18,157.5,367.53,159.52,365.54,161.76Z"/><path class="b" d="M348.37,354.5c-6,0-6,0-6-5.92,0-6.19,0-6.19,6.09-6.19s6,0,6,5.91C354.48,354.5,354.48,354.5,348.37,354.5Z"/><path class="b" d="M373,354.5c-5.95,0-5.95,0-5.95-6,0-6.14,0-6.14,6.15-6.14,6,0,6,0,6,6C379.19,354.5,379.19,354.5,373,354.5Z"/><path class="b" d="M391.76,348.4c0-6,0-6,5.92-6,6.22,0,6.22,0,6.22,6.09s0,6-5.93,6C391.76,354.5,391.76,354.5,391.76,348.4Z"/><path class="d" d="M274.66,352.3c-.67-.74-.24-1.63-.33-2.44-.25-2.44,1-6.53-.5-7-3.38-1.09-7.32-.49-11-.44-1.25,0-1,1.2-1,2,0,2.48,0,5,0,7.51-4-1.43-6.35-6-5.8-10.82a12.22,12.22,0,0,1,23.67-2.86C281.63,343.77,279.76,349.08,274.66,352.3Z"/></svg>