<svg xmlns="http://www.w3.org/2000/svg" viewBox="0 0 383.08 284.32"><defs><style>.a{fill:#010101;}.b{fill:#fff;}.c{fill:#549ad3;}.d{fill:#fefefe;}.e{fill:#fcfcfc;}.f{fill:#fbfafa;}.g{fill:#fbfbfa;}.h{fill:#eebb5f;}.i{fill:#020202;}.j{fill:#070707;}.k{fill:#090908;}.l{fill:#080707;}.m{fill:#040303;}.n{fill:#040403;}</style></defs><path class="a" d="M383.08,14.21c-2.77-6.66-6.78-12-14.29-13.76A20.62,20.62,0,0,0,364,0H19.18C7.86,0,0,7.93,0,19.3Q0,142.15,0,265c0,11.37,7.86,19.3,19.16,19.3H364c8.69,0,15.26-4.62,18.27-12.73.2-.54,0-1.29.84-1.47Z"/><path class="b" d="M111.08,74.17c-31.54,0-63.07.06-94.61-.1-3.43,0-4,1-4,4.14q.16,54.8,0,109.58c0,3.1.71,3.85,3.83,3.84q95-.15,190,0c3.09,0,3.88-.74,3.87-3.86q-.18-54.79,0-109.58c0-3.27-.72-4.13-4.06-4.11C174.41,74.23,142.74,74.17,111.08,74.17Z"/><path class="c" d="M253.52,104.06c5.17,13.81,14.15,24.68,25.74,33.59,2,1.51,2.25-.32,3-1.2,5-5.59,11.23-7.78,18.5-6.16,6.67,1.5,11.21,5.77,13.41,12.27a18.51,18.51,0,0,1-34.78,12.66,10.56,10.56,0,0,0-4.27-5.29,92.52,92.52,0,0,1-30.86-35.29c-2.18,1.13-2.78,3.44-3.72,5.37-12.4,25.57-7.54,53.7,12.61,73.6C274.93,215.1,311,217.06,335,197.94c17.33-13.8,25.77-32,24.21-54-1.55-21.81-12.24-38.85-31.32-49.8-22.87-13.13-49.7-11-69.79,4.8C256.28,100.34,254,101.41,253.52,104.06Z"/><path class="b" d="M111.12,204.14c-31.66,0-63.33.05-95-.07-2.93,0-3.67.74-3.65,3.66.14,18.58.07,37.16.07,55.73,0,6.68,1.64,8.27,8.43,8.27q92.58,0,185.15.09c3.42,0,4-1,4-4.14q-.23-29.73,0-59.47c0-3.16-.56-4.18-4-4.16C174.46,204.21,142.79,204.14,111.12,204.14Z"/><path class="b" d="M247.44,76.78c43.34-28.58,97.32-14.2,122.54,25.5,1.08-.88.53-2.07.53-3.07q.06-39.27,0-78.55c0-6.32-1.72-8.07-7.87-8.07-29.05,0-58.1.05-87.15-.08-3,0-3.64.93-3.6,3.73.16,10.48.1,21,.05,31.43C271.93,57,267,62,257.7,62c-3.36,0-7.88-1.15-9.76.56-2.19,2-.51,6.58-.69,10C247.19,73.84,247.36,75.07,247.44,76.78Z"/><path class="b" d="M370.14,194.5c-34.68,54-112.85,53.72-147.18-.12-1,.79-.44,1.85-.44,2.74,0,15.45.06,30.91-.11,46.36,0,3.05.93,3.64,3.76,3.62,18.69-.12,37.38-.07,56.07-.06,9.52,0,14.36,4.93,14.51,14.51.05,3.31-1.46,7.71.68,9.6,1.85,1.64,6.15.56,9.37.57q28,0,56.07,0c5.74,0,7.66-1.86,7.66-7.52q0-33.64,0-67.29C370.52,196.13,370.9,195.21,370.14,194.5Z"/><path class="b" d="M253.52,104.06c13.08-12.35,28.56-18,46.57-17.38,27.93,1,53.57,24,57.51,51.83,4.8,33.94-16.2,63.69-49.79,70.54-33.36,6.81-67.38-17.28-72.21-51a61.92,61.92,0,0,1,7.54-40.68,21.35,21.35,0,0,0,1.14-2.74c-1.74-4.1-3.49-8.2-5.35-12.57a69.15,69.15,0,0,0-13.61,26.07c-12,42.22,15.53,85.82,58.73,93.26,40.94,7.05,79.68-21.17,85.73-62.44a73.9,73.9,0,0,0-63-84c-20.38-2.83-38.95,2.28-55.46,14.72-1.64,1.23-2.15,2.36-1.47,4.31C251,97.37,251.65,100.94,253.52,104.06Z"/><path class="b" d="M166.86,61.75c13.21,0,26.42-.06,39.63.06,2.62,0,3.68-.41,3.64-3.4q-.25-21.31,0-42.63c0-2.7-.83-3.25-3.36-3.24q-40,.12-80,0c-2.72,0-3.25.83-3.23,3.36q.18,21.32,0,42.63c0,2.66.76,3.32,3.34,3.29C140.19,61.69,153.53,61.75,166.86,61.75Z"/><path class="b" d="M62,61.75c15.21,0,30.42-.07,45.63.07,2.87,0,3.52-.83,3.49-3.58q-.19-21.32,0-42.64c0-2.5-.73-3.07-3.12-3.06-29.43.08-58.86,0-88.28.06-5.21,0-7.19,2-7.21,7.22,0,13,.07,25.94-.07,38.91,0,2.56.8,3.09,3.17,3.07C31.11,61.71,46.57,61.75,62,61.75Z"/><path class="d" d="M259.5,30.86c0-5.1-.09-10.21.05-15.3.06-2.15-.32-3.07-2.79-3-10.57.14-21.15.1-31.72,0-1.88,0-2.53.46-2.61,2.48-.35,9.66-.42,9.64,9.16,9.68,2.34,0,4.69-.27,7,.59,4.86,1.81,7.79,5.13,8.43,10.32a37.05,37.05,0,0,1,.2,4.47c0,9.74,0,9.68,9.83,9.36,2-.06,2.53-.6,2.49-2.55C259.42,41.56,259.5,36.21,259.5,30.86Z"/><path class="e" d="M222.49,102.27c4.11-5.09,8-10.16,12.5-14.68a2.13,2.13,0,0,0,.58-2c-1.18-6.91-.72-13.88-.74-20.83,0-2.07-.5-2.73-2.67-2.77-9.67-.22-9.67-.29-9.67,9.16Z"/><path class="f" d="M222.49,43.1c0,6.3,0,6.3,6.46,6.3,5.83,0,5.83,0,5.83-5.79,0-6.33,0-6.33-6.44-6.33C222.49,37.28,222.49,37.28,222.49,43.1Z"/><path class="f" d="M253.64,271.74c5.87,0,5.87,0,5.87-5.78,0-6.34,0-6.34-6.39-6.34-5.89,0-5.89,0-5.89,5.74C247.23,271.74,247.23,271.74,253.64,271.74Z"/><path class="f" d="M228.77,271.74c6,0,6,0,6-6s0-6.1-6.27-6.1c-6,0-6,0-6,6C222.49,271.74,222.49,271.74,228.77,271.74Z"/><path class="g" d="M272,265.62c0,6.12,0,6.12,6.26,6.12,6,0,6,0,6-6s0-6.08-5.92-6.08h-.37C272,259.62,272,259.62,272,265.62Z"/><path class="h" d="M290.41,148.2a6.06,6.06,0,0,0,6.13,6.13,5.88,5.88,0,0,0,6.11-5.7,6.26,6.26,0,0,0-5.86-6.45A6.46,6.46,0,0,0,290.41,148.2Z"/><path class="i" d="M123.48,120.6c0,10.22-.06,20.44,0,30.66,0,2.32-.44,3.56-3,3.08a1,1,0,0,0-.38,0c-2.91.33-7-1.44-8.49.73-1.81,2.65-.4,6.75-.57,10.22-.08,1.41.73,1.55,1.88,1.61,3.43.17,8-1.52,10,.69,1.69,1.91.54,6.4.49,9.74,0,1.67.61,2.29,2.19,2.09H126c9.94.41,10,.41,10-9.54,0-2.45.64-3.17,3.08-3.08,2.95.12,6.9,1.34,8.62-.48,1.87-2,.26-5.92.61-9,.3-2.61-.83-3.1-3.17-3.07-2.93,0-6.95,1.38-8.52-.57s-.54-5.69-.55-8.66c0-18.32-.08-36.64.07-55,0-3-.81-3.74-3.73-3.69-9,.14-9,0-9,8.79Z"/><path class="i" d="M185.5,145.31c0-10.34.06-20.68-.05-31,0-2.21.41-3.33,2.82-2.87a3.05,3.05,0,0,0,.74,0c2.82-.21,7.27,1.22,8.12-.58,1.4-3,.53-7,.62-10.62,0-1.5-1-1.42-2-1.41a69.83,69.83,0,0,0-7.09,0c-2.76.3-3.21-.82-3.18-3.32.09-9.12,0-9-9-9.15-3,0-3.84.8-3.67,3.72s1.31,6.67-.54,8.17-5.47.7-8.28.46-3.51.75-3.47,3.51c.12,9.12,0,9.26,9,9.1,2.81,0,3.47.66,3.45,3.45-.13,20.32,0,40.63-.13,60.94,0,2.84.57,3.83,3.63,3.77,9.05-.18,9.05,0,9.05-9.14Z"/><path class="i" d="M74.09,111.15c0,7.36-.07,14.71,0,22.07,0,2.06-.46,3.08-2.66,2.73a4.2,4.2,0,0,0-1.12,0c-2.81.26-6.83-1.35-8.15.68-1.77,2.71-.43,6.76-.56,10.23,0,1.12.62,1.52,1.64,1.51H65.9c8.19,0,8.19,0,8.19,8.37,0,6.61.1,13.22-.06,19.83,0,2.34.66,2.88,2.94,2.9,9.71.06,9.71.14,9.71-9.62,0-6.11.09-12.22,0-18.33-.06-2.31.37-3.36,3-3.23,2.94.15,6.88,1.35,8.61-.46,1.9-2,.31-5.94.63-9,.23-2.22-.39-3.1-2.81-3-3,.18-7,1-8.65-.48-2.13-2-.69-6.09-.71-9.27-.09-12-.11-23.94,0-35.91,0-2.75-.43-3.91-3.59-3.85-9.06.18-9.06,0-9.06,9.07Z"/><path class="a" d="M37.07,123.64h3.35c9.89,0,10.36-.62,9.06-10.79-.21-1.65-1-1.65-2.18-1.65-6.83,0-13.66,0-20.49,0-1.56,0-2.36.4-2.12,2.06,0,.13,0,.25,0,.38.08,3.2-1,7.25.56,9.38s5.78.41,8.82.63C35.07,123.71,36.07,123.64,37.07,123.64Z"/><path class="a" d="M37.42,173.11H40c10.18,0,10.13,0,9.45-10.4-.11-1.64-.58-2.08-2.16-2.07-6.83.08-13.66.07-20.49,0-1.54,0-2.07.35-2.19,2-.71,10.44-.77,10.43,9.43,10.43Z"/><path class="a" d="M37.4,148.38c1.12,0,2.24.05,3.36,0,2.8-.17,7.24,1.2,8.05-.55,1.38-3,.52-7,.61-10.57,0-1.59-1.15-1.3-2.08-1.3-6.83,0-13.66.06-20.49,0-1.94,0-2.26.77-2.18,2.41.16,3.21-1,7.37.57,9.37s6,.49,9.18.69C35.41,148.43,36.41,148.38,37.4,148.38Z"/><path class="a" d="M37,86.46c-1,0-2-.06-3,0-3,.24-7.53-1.4-8.78.66-1.55,2.56-.46,6.71-.59,10.17-.05,1.36.59,1.64,1.79,1.63,7.08,0,14.17,0,21.25,0,1.28,0,1.85-.42,1.71-1.71a6.26,6.26,0,0,1,0-.75c-.09-3.21,1-7.26-.59-9.38s-5.78-.41-8.83-.63C39,86.4,38,86.46,37,86.46Z"/><path class="a" d="M68.14,259.63c10,0,19.94,0,29.91,0,8,0,13.23-5.26,13.33-13.34,0-3.74.09-7.48,0-11.22-.2-7.21-5.33-12.64-12.52-12.68q-30.84-.23-61.7,0c-7.39,0-12.39,5.54-12.44,13q0,5.61,0,11.22c.05,7.89,5.17,13,13.15,13C48,259.66,58,259.63,68.14,259.63Z"/><path class="a" d="M197.72,234.92a24.77,24.77,0,0,0-49.53-.15,24.77,24.77,0,1,0,49.53.15Z"/><path class="j" d="M129.27,247c-5.79,0-5.79,0-5.79,5.9,0,6.7,0,6.7,6.79,6.7,5.83,0,5.83,0,5.83-5.82C136.1,247,136.1,247,129.27,247Z"/><path class="k" d="M352.27,24.71A6.46,6.46,0,0,0,345.86,31a6.66,6.66,0,0,0,6.25,6.22,6.41,6.41,0,0,0,6.27-6.43A6.12,6.12,0,0,0,352.27,24.71Z"/><path class="l" d="M321.11,253.29c0,6.33,0,6.33,6.44,6.33,6.14,0,6.14,0,6.14-6.19,0-6.41,0-6.41-6.36-6.41S321.11,247,321.11,253.29Z"/><path class="l" d="M352.21,259.62c6.18,0,6.18,0,6.18-6.14,0-6.46,0-6.46-6.29-6.46s-6.28,0-6.28,6.21C345.82,259.62,345.82,259.62,352.21,259.62Z"/><path class="m" d="M185.32,43.37c3.1,0,6.22-.12,9.31,0,2.27.12,3.2-.34,3.21-3,0-9.69.11-9.69-9.54-9.69-4.23,0-8.45.1-12.67,0-2-.06-2.76.44-2.81,2.65-.24,10-.32,10,9.52,10Z"/><path class="n" d="M148.22,30.76c-3.23,0-6.47.13-9.69,0-2.19-.12-2.68.71-2.73,2.76-.27,9.89-.33,9.89,9.65,9.89,4.36,0,8.71-.07,13.06,0,1.78.05,2.25-.53,2.34-2.31.49-10.33.54-10.33-9.64-10.33Z"/><path class="a" d="M75.62,54.29c2.74-5.46,5.15-10.06,7.35-14.75.8-1.69,1.73-2.4,3.64-2.3,3.36.16,6.73,0,10.09.07,1.6,0,2.36-.45,2.16-2.1a2.29,2.29,0,0,1,0-.37c.49-10.15.49-10.16-9.72-10.14a45,45,0,0,0-7.45.23c-4.33.77-7.22,3.66-9.54,8-2.81-3-5.52-5.56-7.85-8.44-2-2.46-3.32-1.92-5.14.15-2.38,2.7-5,5.15-7.94,8-3.8-8.39-11-8.2-18.41-8-8.11.18-7.91.05-8.2,8-.13,3.64.67,5.43,4.56,4.59,8-1.73,12.28,1.79,15.1,9.28s3.4,7.23,9,1.7c2.82-2.76,5.34-7.7,8.54-7.62,2.84.08,5.6,4.78,8.3,7.53C72,50,73.63,52.05,75.62,54.29Z"/><path class="b" d="M92.78,247c6,0,6,0,6-5.92,0-6.2,0-6.2-6.09-6.2s-6,0-6,5.91C86.68,247,86.68,247,92.78,247Z"/><path class="b" d="M68.13,247c6,0,6,0,6-6,0-6.14,0-6.14-6.15-6.14-6,0-6,0-6,6C62,247,62,247,68.13,247Z"/><path class="b" d="M49.39,240.93c0-6,0-6-5.91-6-6.22,0-6.22,0-6.23,6.09s0,6,5.94,6C49.39,247,49.39,247,49.39,240.93Z"/><path class="d" d="M166.5,244.84c.66-.74.24-1.64.32-2.45.26-2.44-1-6.53.51-7,3.38-1.08,7.32-.49,11-.44,1.26,0,1,1.2,1,2,0,2.49,0,5,0,7.51,3.95-1.43,6.35-6,5.8-10.82a11.9,11.9,0,0,0-10.5-10.85c-6.08-.71-11.16,2.37-13.17,8S161.4,241.61,166.5,244.84Z"/></svg>